<?xml version="1.0" encoding="utf-8"?>
<!-- Generator: Adobe Illustrator 25.0.0, SVG Export Plug-In . SVG Version: 6.00 Build 0)  -->
<svg version="1.1" id="Layer_1" xmlns="http://www.w3.org/2000/svg" xmlns:xlink="http://www.w3.org/1999/xlink" x="0px" y="0px"
	 viewBox="0 0 622.92 277.31" style="enable-background:new 0 0 622.92 277.31;" xml:space="preserve">
<style type="text/css">
	.st0{fill:#FFFFFF;}
</style>
<g>
	<path class="st0" d="M543.73,122.74c-20.9,0-39.85,8.53-53.54,22.29c-13.64-13.7-32.48-22.21-53.28-22.28v0.02
		c-0.44-0.01-0.87-0.02-1.31-0.02c-10.83,0-21.13,2.3-30.45,6.42V2.53h-44.09v165.79c-11.64-26.79-38.35-45.58-69.37-45.58
		c-20.9,0-39.85,8.53-53.54,22.29c-13.7-13.76-32.64-22.29-53.54-22.29c-16.16,0-31.14,5.1-43.44,13.77
		c-1.81,1.27-3.55,2.62-5.24,4.05c-1.66,1.4-3.26,2.87-4.79,4.4c-1.51,1.51-2.95,3.09-4.33,4.73c-1.36,1.62-2.66,3.29-3.89,5.02
		c-1.22,1.72-2.36,3.49-3.43,5.3c-1.07,1.8-2.06,3.65-2.98,5.55c-0.92,1.9-1.75,3.84-2.51,5.82c-3.21,8.38-4.97,17.46-4.97,26.96
		s1.76,18.58,4.97,26.96c0.76,1.98,1.59,3.92,2.51,5.82c0.92,1.9,1.91,3.75,2.98,5.55c1.07,1.82,2.22,3.59,3.43,5.3
		c1.23,1.73,2.52,3.4,3.89,5.02c1.38,1.64,2.82,3.21,4.33,4.73c1.53,1.54,3.13,3,4.79,4.4c1.69,1.42,3.43,2.77,5.24,4.05
		c12.3,8.67,27.29,13.77,43.44,13.77c20.9,0,39.85-8.53,53.54-22.29c13.7,13.76,32.64,22.29,53.54,22.29
		c34.23,0,63.21-22.87,72.48-54.13c9.27,31.26,38.25,54.13,72.48,54.13c0.09,0,0.17,0,0.26,0v0c20.8-0.07,39.64-8.58,53.28-22.28
		c13.7,13.76,32.64,22.29,53.54,22.29c41.68,0,75.59-33.91,75.59-75.59S585.41,122.74,543.73,122.74z M405.15,136.1
		c9.2-4.52,19.53-7.06,30.45-7.06c0.44,0,0.88,0.01,1.31,0.02v-0.02c19.16,0.07,36.51,7.96,49.02,20.63
		c1.49,1.51,2.91,3.08,4.26,4.72c1.38,1.67,2.68,3.41,3.89,5.21c1.27,1.87,2.44,3.81,3.52,5.8c1.16,2.15,2.21,4.36,3.15,6.64
		c1.09,2.65,2.02,5.39,2.78,8.19c1.56,5.77,2.4,11.83,2.4,18.09c0,6.28,1.55,12.2,4.27,17.42c6.31,12.09,18.96,20.38,33.52,20.38
		c20.84,0,37.79-16.95,37.79-37.79s-16.95-37.79-37.79-37.79c-14.56,0-27.21,8.28-33.52,20.38c-0.65-2.76-1.46-5.46-2.41-8.09
		c8-11.23,21.12-18.58,35.93-18.58c24.31,0,44.09,19.78,44.09,44.09s-19.78,44.09-44.09,44.09c-14.81,0-27.93-7.35-35.93-18.58
		c-1.65-2.32-3.08-4.8-4.27-7.42c-2.5-5.52-3.9-11.65-3.9-18.09c0-6.44-0.97-12.66-2.78-18.51c-0.86-2.8-1.92-5.52-3.15-8.15
		c-1.05-2.24-2.23-4.4-3.52-6.49c-1.2-1.93-2.5-3.79-3.89-5.58c-1.34-1.71-2.76-3.35-4.26-4.91
		c-11.41-11.87-27.42-19.29-45.13-19.36v0.02c-0.44-0.01-0.87-0.02-1.31-0.02c-11.04,0-21.42,2.86-30.45,7.87V136.1z M512.24,198.33
		c0-17.37,14.13-31.5,31.5-31.5s31.5,14.13,31.5,31.5s-14.13,31.5-31.5,31.5S512.24,215.69,512.24,198.33z M405.15,150.53
		c8.8-5.63,19.25-8.9,30.45-8.9c0.44,0,0.88,0.01,1.31,0.02v-0.02c16.46,0.08,31.29,7.2,41.61,18.51c1.52,1.67,2.94,3.42,4.26,5.26
		c1.43,2,2.73,4.09,3.89,6.26c1.37,2.56,2.55,5.24,3.52,8.02c2.04,5.84,3.15,12.11,3.15,18.63c0,6.53,1.25,12.78,3.52,18.51
		c1.08,2.71,2.38,5.31,3.89,7.77c1.28,2.08,2.7,4.07,4.26,5.93c9.25,11.1,23.17,18.17,38.72,18.17c27.79,0,50.39-22.61,50.39-50.39
		s-22.61-50.39-50.39-50.39c-15.54,0-29.46,7.08-38.72,18.17c-0.96-2.04-2.02-4.03-3.15-5.96c10.37-11.37,25.3-18.51,41.87-18.51
		c31.26,0,56.69,25.43,56.69,56.69s-25.43,56.69-56.69,56.69c-16.57,0-31.5-7.14-41.87-18.51c-1.52-1.67-2.94-3.42-4.26-5.26
		c-1.43-2-2.73-4.09-3.89-6.26c-1.37-2.56-2.55-5.24-3.52-8.02c-2.04-5.84-3.15-12.11-3.15-18.63c0-6.53-1.25-12.78-3.52-18.51
		c-1.08-2.71-2.38-5.31-3.89-7.77c-1.28-2.08-2.7-4.07-4.26-5.93c-9.2-11.04-23.02-18.09-38.45-18.17v0.02
		c-0.44-0.01-0.87-0.02-1.31-0.02c-11.43,0-21.98,3.84-30.45,10.28V150.53z M468.14,198.33c0,17.28-13.99,31.35-31.23,31.49v0
		c-0.09,0-0.17,0-0.26,0c-17.37,0-31.5-14.13-31.5-31.5s14.13-31.5,31.5-31.5c0.09,0,0.17,0,0.26,0v0
		C454.15,166.98,468.14,181.05,468.14,198.33z M392.55,8.83h6.3v189.5c0,20.84,16.95,37.79,37.79,37.79c0.09,0,0.17,0,0.26,0v0
		c14.45-0.1,26.99-8.35,33.26-20.37c0.65,2.76,1.46,5.46,2.41,8.09c-7.95,11.17-20.96,18.49-35.67,18.58v0c-0.09,0-0.17,0-0.26,0
		c-24.31,0-44.09-19.78-44.09-44.09V8.83z M379.96,8.83h6.3v189.5c0,27.79,22.61,50.39,50.39,50.39c0.09,0,0.17,0,0.26,0v0
		c15.44-0.08,29.25-7.13,38.45-18.17c0.96,2.04,2.02,4.03,3.15,5.96c-10.32,11.31-25.15,18.43-41.61,18.51v0c-0.09,0-0.17,0-0.26,0
		c-31.26,0-56.69-25.43-56.69-56.69V8.83z M184.6,267.62c-14.11,0-27.25-4.24-38.21-11.51c-1.81-1.2-3.55-2.48-5.24-3.84
		c-1.66-1.34-3.26-2.75-4.79-4.24c-1.51-1.47-2.96-3.01-4.34-4.61c-1.37-1.59-2.66-3.24-3.88-4.96c-1.22-1.71-2.37-3.49-3.43-5.31
		c-1.07-1.84-2.06-3.73-2.97-5.67c-0.94-2.01-1.78-4.07-2.52-6.18c-2.53-7.19-3.92-14.92-3.92-22.97s1.38-15.78,3.92-22.97
		c0.74-2.11,1.58-4.17,2.52-6.18c0.9-1.94,1.89-3.84,2.97-5.67c1.07-1.83,2.21-3.6,3.43-5.31c1.22-1.71,2.52-3.36,3.88-4.95
		c1.38-1.6,2.82-3.14,4.34-4.61c1.53-1.48,3.13-2.9,4.79-4.24c1.68-1.36,3.43-2.64,5.24-3.84c10.96-7.27,24.1-11.51,38.21-11.51
		c19.26,0,36.71,7.9,49.28,20.64c1.49,1.51,2.91,3.08,4.26,4.72c1.38,1.67,2.68,3.41,3.89,5.21c1.27,1.87,2.44,3.81,3.52,5.8
		c1.16,2.15,2.21,4.36,3.15,6.64c1.09,2.65,2.02,5.39,2.78,8.19c1.56,5.77,2.4,11.83,2.4,18.09c0,6.28,1.55,12.2,4.27,17.42
		c6.31,12.09,18.96,20.38,33.52,20.38c20.84,0,37.79-16.95,37.79-37.79s-16.95-37.79-37.79-37.79c-14.56,0-27.21,8.28-33.52,20.38
		c-0.65-2.76-1.46-5.46-2.41-8.09c8-11.23,21.12-18.58,35.93-18.58c24.31,0,44.09,19.78,44.09,44.09s-19.78,44.09-44.09,44.09
		c-14.81,0-27.93-7.35-35.93-18.58c-1.65-2.32-3.08-4.8-4.27-7.42c-2.5-5.52-3.9-11.65-3.9-18.09c0-6.44-0.97-12.66-2.78-18.51
		c-0.86-2.8-1.92-5.52-3.15-8.15c-1.05-2.24-2.23-4.4-3.52-6.49c-1.2-1.93-2.5-3.79-3.89-5.58c-1.34-1.71-2.76-3.35-4.26-4.91
		c-11.47-11.93-27.58-19.36-45.39-19.36c-34.73,0-62.99,28.26-62.99,62.99s28.26,62.99,62.99,62.99c17.81,0,33.92-7.43,45.39-19.36
		c1.23,1.73,2.53,3.4,3.89,5.02C221.32,259.71,203.87,267.62,184.6,267.62z M249.82,160.15c10.37-11.37,25.3-18.51,41.87-18.51
		c31.26,0,56.69,25.43,56.69,56.69s-25.43,56.69-56.69,56.69c-16.57,0-31.5-7.14-41.87-18.51c-1.52-1.67-2.94-3.42-4.26-5.26
		c-1.43-2-2.73-4.09-3.89-6.26c-1.37-2.56-2.55-5.24-3.52-8.02c-2.04-5.84-3.15-12.11-3.15-18.63c0-6.53-1.25-12.78-3.52-18.51
		c-1.08-2.71-2.38-5.31-3.89-7.77c-1.28-2.08-2.7-4.07-4.26-5.93c-9.25-11.1-23.17-18.17-38.72-18.17
		c-27.79,0-50.39,22.61-50.39,50.39s22.61,50.39,50.39,50.39c15.54,0,29.46-7.08,38.72-18.17c0.96,2.04,2.02,4.03,3.15,5.96
		c-10.37,11.37-25.3,18.51-41.87,18.51c-31.26,0-56.69-25.43-56.69-56.69s25.43-56.69,56.69-56.69c16.57,0,31.5,7.14,41.87,18.51
		c1.52,1.67,2.94,3.42,4.26,5.26c1.43,2,2.73,4.09,3.89,6.26c1.37,2.56,2.55,5.24,3.52,8.02c2.04,5.84,3.15,12.11,3.15,18.63
		c0,6.53,1.25,12.78,3.52,18.51c1.08,2.71,2.38,5.31,3.89,7.77c1.28,2.08,2.7,4.07,4.26,5.93c9.25,11.1,23.17,18.17,38.72,18.17
		c27.79,0,50.39-22.61,50.39-50.39s-22.61-50.39-50.39-50.39c-15.54,0-29.46,7.08-38.72,18.17
		C252.01,164.07,250.95,162.08,249.82,160.15z M260.19,198.33c0-17.37,14.13-31.5,31.5-31.5s31.5,14.13,31.5,31.5
		s-14.13,31.5-31.5,31.5S260.19,215.69,260.19,198.33z M291.69,267.62c-19.26,0-36.71-7.9-49.28-20.64
		c-1.49-1.51-2.91-3.08-4.26-4.72c-1.38-1.67-2.68-3.41-3.89-5.21c-1.27-1.87-2.44-3.81-3.52-5.8c-1.16-2.15-2.21-4.36-3.15-6.64
		c-1.09-2.65-2.02-5.39-2.78-8.19c-1.56-5.77-2.4-11.83-2.4-18.09c0-6.28-1.55-12.2-4.27-17.42c-6.31-12.09-18.96-20.38-33.52-20.38
		c-20.84,0-37.79,16.95-37.79,37.79s16.95,37.79,37.79,37.79c14.56,0,27.21-8.28,33.52-20.38c0.65,2.76,1.46,5.46,2.41,8.09
		c-8,11.23-21.12,18.58-35.93,18.58c-24.31,0-44.09-19.78-44.09-44.09s19.78-44.09,44.09-44.09c14.81,0,27.93,7.35,35.93,18.58
		c1.65,2.32,3.08,4.8,4.27,7.42c2.5,5.52,3.9,11.65,3.9,18.09c0,6.44,0.97,12.66,2.78,18.51c0.86,2.8,1.92,5.52,3.15,8.15
		c1.05,2.24,2.23,4.4,3.52,6.49c1.2,1.93,2.5,3.79,3.89,5.58c1.34,1.71,2.76,3.35,4.26,4.91c11.47,11.93,27.58,19.36,45.39,19.36
		c34.73,0,62.99-28.26,62.99-62.99s-28.26-62.99-62.99-62.99c-17.81,0-33.92,7.43-45.39,19.36c-1.23-1.73-2.53-3.4-3.89-5.02
		c12.57-12.73,30.02-20.64,49.28-20.64c38.21,0,69.29,31.08,69.29,69.29S329.9,267.62,291.69,267.62z M216.1,198.33
		c0,17.37-14.13,31.5-31.5,31.5s-31.5-14.13-31.5-31.5s14.13-31.5,31.5-31.5S216.1,180.96,216.1,198.33z M436.91,267.61
		L436.91,267.61c-0.09,0-0.17,0-0.26,0c-38.21,0-69.29-31.08-69.29-69.29V8.83h6.3v189.5c0,34.73,28.26,62.99,62.99,62.99
		c0.09,0,0.17,0,0.26,0v0c17.71-0.07,33.72-7.49,45.13-19.36c1.23,1.73,2.53,3.4,3.89,5.02
		C473.42,259.65,456.07,267.54,436.91,267.61z M543.73,267.62c-19.26,0-36.71-7.9-49.28-20.64c-1.49-1.51-2.91-3.08-4.26-4.72
		c-1.38-1.67-2.68-3.41-3.89-5.21c-1.27-1.87-2.44-3.81-3.52-5.8c-1.16-2.15-2.21-4.36-3.15-6.64c-1.09-2.65-2.02-5.39-2.78-8.19
		c-1.56-5.77-2.4-11.83-2.4-18.09c0-6.28-1.55-12.2-4.27-17.42c-6.27-12.02-18.81-20.27-33.26-20.37v0c-0.09,0-0.17,0-0.26,0
		c-13.13,0-24.72,6.74-31.5,16.93v-10.99c7.92-7.58,18.65-12.24,30.45-12.24c0.44,0,0.88,0.01,1.31,0.02v-0.02
		c14.7,0.09,27.72,7.41,35.67,18.58c1.65,2.32,3.08,4.8,4.27,7.42c2.5,5.52,3.9,11.65,3.9,18.09c0,6.44,0.97,12.66,2.78,18.51
		c0.86,2.8,1.92,5.52,3.15,8.15c1.05,2.24,2.23,4.4,3.52,6.49c1.2,1.93,2.5,3.79,3.89,5.58c1.34,1.71,2.76,3.35,4.26,4.91
		c11.47,11.93,27.58,19.36,45.39,19.36c34.73,0,62.99-28.26,62.99-62.99s-28.26-62.99-62.99-62.99c-17.81,0-33.92,7.43-45.39,19.36
		c-1.23-1.73-2.53-3.4-3.89-5.02c12.57-12.73,30.02-20.64,49.28-20.64c38.21,0,69.29,31.08,69.29,69.29S581.94,267.62,543.73,267.62
		z"/>
	<path class="st0" d="M94.1,226.25c-4.35,2.28-9.3,3.57-14.55,3.57c-17.37,0-31.5-14.13-31.5-31.5s14.13-31.5,31.5-31.5
		c5.45,0,10.58,1.4,15.06,3.84c0.4,0.3,0.79,0.62,1.16,0.94l22.72-38.04c-1.8-1.08-3.64-2.1-5.52-3.04
		c-10.08-4.99-21.43-7.8-33.42-7.8c-41.68,0-75.59,33.91-75.59,75.59s33.91,75.59,75.59,75.59c12.01,0,23.37-2.82,33.47-7.83
		c1.89-0.94,3.73-1.95,5.52-3.04l-22.77-38.11C95.25,225.39,94.69,225.83,94.1,226.25z M109.76,260.65
		c-9.14,4.45-19.39,6.97-30.22,6.97c-38.21,0-69.29-31.08-69.29-69.29s31.08-69.29,69.29-69.29c10.81,0,21.04,2.51,30.17,6.94
		l-3.24,5.43c-8.17-3.88-17.3-6.07-26.93-6.07c-34.73,0-62.99,28.26-62.99,62.99s28.26,62.99,62.99,62.99
		c9.65,0,18.79-2.19,26.98-6.09L109.76,260.65z M103.28,249.8c-7.22,3.35-15.26,5.22-23.73,5.22c-31.26,0-56.69-25.43-56.69-56.69
		s25.43-56.69,56.69-56.69c8.45,0,16.47,1.87,23.69,5.2l-3.25,5.44c-6.25-2.79-13.16-4.34-20.43-4.34
		c-27.79,0-50.39,22.61-50.39,50.39s22.61,50.39,50.39,50.39c7.29,0,14.22-1.56,20.48-4.36L103.28,249.8z M79.55,242.42
		c-24.31,0-44.09-19.78-44.09-44.09s19.78-44.09,44.09-44.09c6.09,0,11.89,1.25,17.17,3.5l-3.27,5.47c-4.31-1.72-9-2.67-13.91-2.67
		c-20.84,0-37.79,16.95-37.79,37.79s16.95,37.79,37.79,37.79c4.93,0,9.64-0.96,13.96-2.69l3.26,5.46
		C91.48,241.16,85.66,242.42,79.55,242.42z"/>
</g>
<g>
	<path class="st0" d="M466.29,45.58c-4.97,0-9.54,2.3-12.49,6.21c-2.95-3.92-7.52-6.21-12.49-6.21c-8.64,0-15.66,7.03-15.66,15.66
		V84.1h6.55V61.24c0-5.03,4.09-9.11,9.11-9.11s9.11,4.09,9.11,9.11V84.1h6.76V61.24c0-5.03,4.09-9.11,9.11-9.11s9.11,4.09,9.11,9.11
		V84.1h6.55V61.24C481.95,52.61,474.93,45.58,466.29,45.58z"/>
	<path class="st0" d="M515.44,48.43c-6.01-3.53-13.83-3.56-19.92-0.07c-5.84,3.34-9.07,9.25-9.08,16.61
		c-0.39,10.37,7.13,16.81,14.76,18.59c1.52,0.35,3.11,0.54,4.73,0.54c6.63,0,13.62-3.16,17.1-10.95l0.38-0.85l-5.5-2.93l-0.44,0.96
		c-3.08,6.71-9.77,8.46-15.02,7.23c-4.28-1-9.17-4.57-9.41-11.33h31.21l0.01-0.99C524.34,57.78,521.21,51.81,515.44,48.43z
		 M493.78,60.39c1.73-6.17,7.28-8.43,11.69-8.37c4.78,0.02,10.06,2.62,11.66,8.37H493.78z"/>
	<path class="st0" d="M559.19,50.22c-3.42-2.85-7.77-4.44-12.26-4.44c-10.57,0-19.17,8.6-19.17,19.17c0,10.56,8.6,19.16,19.17,19.16
		c10.56,0,19.16-8.59,19.16-19.16V33.1h-6.9V50.22z M556.51,57.35c1.73,2.19,2.65,4.81,2.65,7.59c0,6.74-5.48,12.22-12.22,12.22
		c-6.74,0-12.23-5.48-12.23-12.22c0-6.74,5.49-12.23,12.23-12.23c3.36,0,6.53,1.38,8.84,3.8C555.78,56.51,556.46,57.32,556.51,57.35
		z"/>
	<path class="st0" d="M601.16,45.58c-10.57,0-19.17,8.59-19.17,19.16c0,10.57,8.6,19.17,19.17,19.17c4.48,0,8.83-1.6,12.26-4.44
		v4.43h6.9V64.74C620.32,54.18,611.73,45.58,601.16,45.58z M610.01,73.17c-2.31,2.43-5.49,3.8-8.85,3.8
		c-6.74,0-12.23-5.49-12.23-12.23c0-6.74,5.49-12.22,12.23-12.22c6.74,0,12.22,5.48,12.22,12.22c0,2.78-0.92,5.4-2.65,7.59
		C610.69,72.37,610.01,73.17,610.01,73.17z"/>
	<rect x="570.93" y="47.13" class="st0" width="6.47" height="36.77"/>
	<path class="st0" d="M574.15,32.84c-1.69-0.05-3.1,0.74-3.9,2.11c-0.9,1.53-0.9,3.6,0,5.14c0.79,1.36,2.19,2.14,3.8,2.14
		c0.03,0,0.06,0,0.09,0c1.72,0,3.14-0.75,3.95-2.15c0.89-1.53,0.89-3.59,0-5.11C577.27,33.58,575.86,32.8,574.15,32.84z"/>
</g>
<g>
</g>
<g>
</g>
<g>
</g>
<g>
</g>
<g>
</g>
<g>
</g>
<g>
</g>
<g>
</g>
<g>
</g>
<g>
</g>
<g>
</g>
<g>
</g>
<g>
</g>
<g>
</g>
<g>
</g>
</svg>
